<svg width="180" height="49" viewBox="0 0 180 49" fill="none" xmlns="http://www.w3.org/2000/svg">
<path fill-rule="evenodd" clip-rule="evenodd" d="M4.33959 45.1522H25.6328V45.6094H4.33959V45.1522Z" fill="#030F41"/>
<path d="M29.4467 42.7195V44.832H31.2757V45.4539H29.4467V48.1791H28.834V42.0977H32.1628V42.7195H29.4467Z" fill="#030F41"/>
<path d="M35.8949 42.0977V48.1791H35.273V42.0977H35.8949Z" fill="#030F41"/>
<path d="M43.5307 42.0977V48.1791H42.79L39.7264 43.2682V48.1791H39.0954V42.0977H39.7538L42.9089 47.1457V42.0977H43.5307Z" fill="#030F41"/>
<path d="M50.2337 45.9386H48.0938L47.3073 48.1791H46.6397L48.7705 42.1068H49.557L51.6878 48.1791H51.0202L50.2337 45.9386ZM50.0325 45.3533L49.1637 42.8658L48.295 45.3533H50.0325Z" fill="#030F41"/>
<path d="M59.231 42.0977V48.1791H58.4902L55.4266 43.2682V48.1791H54.7956V42.0977H55.454L58.6091 47.1457V42.0977H59.231Z" fill="#030F41"/>
<path d="M65.4127 48.234C64.8518 48.234 64.3366 48.0968 63.8671 47.8225C63.3977 47.5481 63.0258 47.1762 62.7514 46.7068C62.4771 46.2373 62.3399 45.7221 62.3399 45.1613C62.3399 44.6004 62.4771 44.0852 62.7514 43.6157C63.0258 43.1402 63.3977 42.7652 63.8671 42.4909C64.3427 42.2104 64.8579 42.0702 65.4127 42.0702C65.8638 42.0702 66.2936 42.1647 66.7021 42.3537C67.1106 42.5366 67.4581 42.8018 67.7446 43.1493L67.2691 43.5517C67.0374 43.2835 66.757 43.0762 66.4278 42.9299C66.1046 42.7774 65.7663 42.7012 65.4127 42.7012C64.9737 42.7012 64.5652 42.814 64.1872 43.0396C63.8153 43.2591 63.5196 43.5578 63.3001 43.9358C63.0807 44.3138 62.9709 44.7223 62.9709 45.1613C62.9709 45.6002 63.0807 46.0087 63.3001 46.3867C63.5196 46.7586 63.8153 47.0543 64.1872 47.2738C64.5652 47.4932 64.9737 47.603 65.4127 47.603C65.7663 47.603 66.1046 47.5298 66.4278 47.3835C66.757 47.2311 67.0374 47.0207 67.2691 46.7525L67.7446 47.1549C67.4581 47.4963 67.1106 47.7615 66.7021 47.9505C66.2936 48.1395 65.8638 48.234 65.4127 48.234Z" fill="#030F41"/>
<path d="M71.4749 42.0977V48.1791H70.853V42.0977H71.4749Z" fill="#030F41"/>
<path d="M78.1779 45.9386H76.038L75.2515 48.1791H74.5839L76.7147 42.1068H77.5012L79.632 48.1791H78.9644L78.1779 45.9386ZM77.9768 45.3533L77.108 42.8658L76.2392 45.3533H77.9768Z" fill="#030F41"/>
<path d="M85.3553 47.5573V48.1791H82.7398V42.0977H83.3708V47.5573H85.3553Z" fill="#030F41"/>
<path d="M98.3703 45.9386H96.2304L95.4439 48.1791H94.7763L96.9071 42.1068H97.6936L99.8244 48.1791H99.1568L98.3703 45.9386ZM98.1691 45.3533L97.3003 42.8658L96.4316 45.3533H98.1691Z" fill="#030F41"/>
<path d="M102.932 48.1791V42.0885H104.469C105.023 42.0885 105.532 42.2257 105.996 42.5C106.459 42.7744 106.828 43.1432 107.102 43.6066C107.377 44.0699 107.514 44.579 107.514 45.1338C107.514 45.6886 107.377 46.1977 107.102 46.661C106.828 47.1244 106.459 47.4932 105.996 47.7676C105.532 48.0419 105.023 48.1791 104.469 48.1791H102.932ZM104.469 47.5573C104.908 47.5573 105.313 47.4506 105.685 47.2372C106.057 47.0177 106.349 46.722 106.563 46.3501C106.782 45.9782 106.892 45.5728 106.892 45.1338C106.892 44.6949 106.782 44.2894 106.563 43.9175C106.349 43.5456 106.057 43.253 105.685 43.0396C105.313 42.8201 104.908 42.7104 104.469 42.7104H103.563V47.5573H104.469Z" fill="#030F41"/>
<path d="M112.107 48.17L109.985 42.0885H110.653L112.509 47.4018L114.366 42.0885H115.024L112.903 48.17H112.107Z" fill="#030F41"/>
<path d="M118.754 42.0977V48.1791H118.132V42.0977H118.754Z" fill="#030F41"/>
<path d="M125.375 43.8627C125.344 43.631 125.271 43.4298 125.155 43.2591C124.918 42.8933 124.524 42.7104 123.976 42.7104C123.518 42.7104 123.186 42.814 122.979 43.0213C122.79 43.2164 122.695 43.4816 122.695 43.8169C122.695 44.1888 122.799 44.4449 123.006 44.5851C123.214 44.7253 123.503 44.8107 123.875 44.8412C124.229 44.8717 124.527 44.9204 124.771 44.9875C125.015 45.0485 125.219 45.1338 125.384 45.2436C125.817 45.5118 126.033 45.9325 126.033 46.5056C126.033 46.7312 125.988 46.9445 125.896 47.1457C125.811 47.3469 125.686 47.5268 125.521 47.6853C125.149 48.0511 124.64 48.234 123.994 48.234C123.342 48.234 122.826 48.0541 122.448 47.6944C122.125 47.3957 121.93 46.9933 121.863 46.4873H122.494C122.549 46.7921 122.677 47.0421 122.878 47.2372C123.14 47.481 123.515 47.603 124.003 47.603C124.418 47.603 124.753 47.5024 125.009 47.3012C125.271 47.0939 125.402 46.8287 125.402 46.5056C125.402 46.2983 125.36 46.1276 125.274 45.9935C125.195 45.8532 125.04 45.7404 124.808 45.6551C124.576 45.5697 124.247 45.5088 123.82 45.4722C122.65 45.3685 122.064 44.8168 122.064 43.8169C122.064 43.567 122.104 43.3383 122.183 43.131C122.269 42.9177 122.388 42.7348 122.54 42.5823C122.875 42.247 123.351 42.0794 123.967 42.0794H123.976C124.604 42.0855 125.082 42.2592 125.411 42.6006C125.747 42.936 125.945 43.3597 126.006 43.8718H125.375V43.8627Z" fill="#030F41"/>
<path d="M131.919 48.2248C131.364 48.2248 130.855 48.0877 130.392 47.8133C129.929 47.539 129.56 47.1701 129.285 46.7068C129.011 46.2434 128.874 45.7343 128.874 45.1795C128.874 44.6247 129.011 44.1157 129.285 43.6523C129.56 43.1829 129.929 42.811 130.392 42.5366C130.861 42.2623 131.37 42.1251 131.919 42.1251C132.468 42.1251 132.977 42.2623 133.446 42.5366C133.916 42.811 134.288 43.1829 134.562 43.6523C134.836 44.1218 134.974 44.6308 134.974 45.1795C134.974 45.7282 134.836 46.2373 134.562 46.7068C134.288 47.1701 133.916 47.539 133.446 47.8133C132.983 48.0877 132.474 48.2248 131.919 48.2248ZM131.919 47.603C132.358 47.603 132.764 47.4963 133.135 47.2829C133.507 47.0634 133.8 46.7677 134.013 46.3958C134.233 46.0239 134.343 45.6185 134.343 45.1795C134.343 44.7406 134.233 44.3351 134.013 43.9632C133.8 43.5913 133.507 43.2987 133.135 43.0853C132.764 42.8658 132.358 42.7561 131.919 42.7561C131.48 42.7561 131.075 42.8658 130.703 43.0853C130.331 43.2987 130.035 43.5913 129.816 43.9632C129.602 44.3351 129.496 44.7406 129.496 45.1795C129.496 45.6185 129.602 46.0239 129.816 46.3958C130.035 46.7677 130.331 47.0634 130.703 47.2829C131.075 47.4963 131.48 47.603 131.919 47.603Z" fill="#030F41"/>
<path d="M139.611 45.9935L141.577 48.1791H140.736L138.769 45.9935H138.715V48.1791H138.084V42.1068H139.638C139.992 42.1068 140.315 42.1952 140.608 42.372C140.906 42.5427 141.141 42.7774 141.312 43.0762C141.489 43.3749 141.577 43.7011 141.577 44.0547C141.577 44.4083 141.489 44.7345 141.312 45.0332C141.141 45.3259 140.906 45.5606 140.608 45.7374C140.315 45.9081 139.992 45.9935 139.638 45.9935H139.611ZM138.715 42.7287V45.3716H139.638C139.876 45.3716 140.095 45.3137 140.297 45.1978C140.498 45.0759 140.656 44.9143 140.772 44.7131C140.894 44.512 140.955 44.2925 140.955 44.0547C140.955 43.8169 140.894 43.5974 140.772 43.3963C140.656 43.189 140.498 43.0274 140.297 42.9116C140.095 42.7896 139.876 42.7287 139.638 42.7287H138.715Z" fill="#030F41"/>
<path d="M148.104 43.8627C148.073 43.631 148 43.4298 147.884 43.2591C147.646 42.8933 147.253 42.7104 146.704 42.7104C146.247 42.7104 145.915 42.814 145.708 43.0213C145.519 43.2164 145.424 43.4816 145.424 43.8169C145.424 44.1888 145.528 44.4449 145.735 44.5851C145.942 44.7253 146.232 44.8107 146.604 44.8412C146.957 44.8717 147.256 44.9204 147.5 44.9875C147.744 45.0485 147.948 45.1338 148.113 45.2436C148.546 45.5118 148.762 45.9325 148.762 46.5056C148.762 46.7312 148.716 46.9445 148.625 47.1457C148.539 47.3469 148.415 47.5268 148.25 47.6853C147.878 48.0511 147.369 48.234 146.723 48.234C146.07 48.234 145.555 48.0541 145.177 47.6944C144.854 47.3957 144.659 46.9933 144.592 46.4873H145.223C145.278 46.7921 145.406 47.0421 145.607 47.2372C145.869 47.481 146.244 47.603 146.732 47.603C147.146 47.603 147.482 47.5024 147.738 47.3012C148 47.0939 148.131 46.8287 148.131 46.5056C148.131 46.2983 148.088 46.1276 148.003 45.9935C147.924 45.8532 147.768 45.7404 147.537 45.6551C147.305 45.5697 146.976 45.5088 146.549 45.4722C145.378 45.3685 144.793 44.8168 144.793 43.8169C144.793 43.567 144.833 43.3383 144.912 43.131C144.997 42.9177 145.116 42.7348 145.269 42.5823C145.604 42.247 146.079 42.0794 146.695 42.0794H146.704C147.332 42.0855 147.811 42.2592 148.14 42.6006C148.475 42.936 148.674 43.3597 148.735 43.8718H148.104V43.8627Z" fill="#030F41"/>
<path fill-rule="evenodd" clip-rule="evenodd" d="M151.963 45.1522H173.256V45.6094H151.963V45.1522Z" fill="#030F41"/>
<path d="M10.4807 5.0495C13.3834 5.0495 15.7976 5.40688 17.723 6.12163C19.6485 6.8218 21.0926 7.87205 22.0553 9.27239C23.0326 10.6727 23.5213 12.4159 23.5213 14.5018C23.5213 15.8 23.3025 16.9815 22.8649 18.0464C22.4273 19.1112 21.8 20.0667 20.9832 20.9127C20.1809 21.7441 19.2182 22.4735 18.095 23.1007L27.416 37.0385H17.6136L10.8307 25.3982H8.64271V37.0385H0V5.0495H10.4807ZM10.3494 11.5917H8.64271V18.8997H10.2618C11.5893 18.8997 12.676 18.608 13.522 18.0245C14.368 17.441 14.7911 16.3981 14.7911 14.8956C14.7911 13.86 14.441 13.0504 13.7408 12.4669C13.0406 11.8834 11.9102 11.5917 10.3494 11.5917Z" fill="#030F41"/>
<path d="M42.4951 11.8105C45.6312 11.8105 48.0818 12.5909 49.8468 14.1517C51.6118 15.6979 52.4944 17.9078 52.4944 20.7814V37.0385H46.5648L44.9238 33.7564H44.7487C44.0486 34.6316 43.3265 35.3464 42.5826 35.9007C41.8532 36.4404 41.0145 36.8342 40.0664 37.0822C39.1182 37.3448 37.9586 37.4761 36.5874 37.4761C35.1579 37.4761 33.8742 37.1843 32.7365 36.6009C31.5987 36.0174 30.7016 35.1349 30.0452 33.9533C29.3888 32.7718 29.0606 31.2767 29.0606 29.4679C29.0606 26.8131 29.9795 24.8439 31.8175 23.5602C33.6554 22.2766 36.3175 21.5545 39.8038 21.3941L43.9392 21.2628V20.9127C43.9392 19.8041 43.662 19.0164 43.1077 18.5496C42.568 18.0828 41.8387 17.8495 40.9197 17.8495C39.9424 17.8495 38.8484 18.0245 37.6376 18.3746C36.4415 18.7101 35.2381 19.1477 34.0274 19.6874L31.5549 14.0423C32.9844 13.3129 34.6036 12.7586 36.4123 12.3794C38.2211 12.0001 40.2487 11.8105 42.4951 11.8105ZM43.9829 25.967L42.0137 26.0546C40.4383 26.1129 39.3297 26.3901 38.6879 26.886C38.0607 27.3674 37.747 28.0603 37.747 28.9646C37.747 29.8107 37.9731 30.4379 38.4253 30.8463C38.8775 31.2402 39.4756 31.4371 40.2195 31.4371C41.2552 31.4371 42.1377 31.1089 42.867 30.4525C43.611 29.7961 43.9829 28.9428 43.9829 27.8925V25.967Z" fill="#030F41"/>
<path d="M71.3939 11.8105C71.8607 11.8105 72.3494 11.847 72.8599 11.9199C73.3704 11.9783 73.7497 12.0293 73.9977 12.0731L73.2319 20.1469C72.9547 20.074 72.5973 20.0156 72.1597 19.9718C71.7221 19.9135 71.1095 19.8843 70.3218 19.8843C69.7821 19.8843 69.2059 19.9354 68.5932 20.0375C67.9806 20.1396 67.3971 20.3584 66.8428 20.6939C66.3031 21.0148 65.8582 21.5108 65.5081 22.1818C65.158 22.8382 64.983 23.728 64.983 24.8511V37.0385H56.4278V12.2481H62.795L64.1297 16.2084H64.5454C64.9976 15.3916 65.5738 14.6549 66.2739 13.9985C66.9887 13.3275 67.7837 12.7951 68.6589 12.4013C69.5487 12.0074 70.4604 11.8105 71.3939 11.8105Z" fill="#030F41"/>
<path d="M112.938 37.0384L103.485 12.248H112.413L116.614 26.9078C116.657 27.0391 116.73 27.3746 116.832 27.9143C116.949 28.454 117.007 28.9573 117.007 29.424H117.161C117.161 28.9281 117.212 28.454 117.314 28.0018C117.416 27.5496 117.496 27.1995 117.554 26.9516L121.952 12.248H130.858L121.405 37.0384H112.938Z" fill="#030F41"/>
<path d="M145.44 11.8104C147.847 11.8104 149.926 12.2334 151.676 13.0795C153.427 13.9109 154.776 15.1654 155.724 16.8429C156.672 18.5204 157.146 20.6209 157.146 23.1444V26.9516H141.852C141.925 28.2498 142.406 29.3146 143.296 30.1461C144.2 30.9775 145.528 31.3933 147.278 31.3933C148.824 31.3933 150.239 31.2401 151.523 30.9338C152.821 30.6275 154.156 30.1534 155.527 29.5116V35.6599C154.331 36.2872 153.025 36.7466 151.611 37.0384C150.196 37.3301 148.409 37.476 146.25 37.476C143.756 37.476 141.524 37.0311 139.555 36.1413C137.585 35.2515 136.032 33.873 134.894 32.0059C133.771 30.1388 133.209 27.7393 133.209 24.8073C133.209 21.8316 133.72 19.3883 134.741 17.4774C135.762 15.552 137.191 14.1297 139.029 13.2108C140.867 12.2772 143.004 11.8104 145.44 11.8104ZM145.747 17.6306C144.74 17.6306 143.894 17.9515 143.209 18.5933C142.538 19.2205 142.144 20.2124 142.027 21.569H149.379C149.364 20.8397 149.218 20.176 148.941 19.5779C148.664 18.9799 148.256 18.5058 147.716 18.1557C147.191 17.8056 146.534 17.6306 145.747 17.6306Z" fill="#030F41"/>
<path d="M177.396 11.8104C177.863 11.8104 178.351 11.8469 178.862 11.9198C179.373 11.9782 179.752 12.0292 180 12.073L179.234 20.1468C178.957 20.0739 178.599 20.0155 178.162 19.9718C177.724 19.9134 177.112 19.8842 176.324 19.8842C175.784 19.8842 175.208 19.9353 174.595 20.0374C173.983 20.1395 173.399 20.3583 172.845 20.6938C172.305 21.0147 171.86 21.5107 171.51 22.1817C171.16 22.8381 170.985 23.7279 170.985 24.8511V37.0384H162.43V12.248H168.797L170.132 16.2084H170.548C171 15.3915 171.576 14.6549 172.276 13.9985C172.991 13.3275 173.786 12.795 174.661 12.4012C175.551 12.0073 176.462 11.8104 177.396 11.8104Z" fill="#030F41"/>
<rect x="75.644" width="26.3081" height="37.476" fill="#E69137"/>
<path d="M98.2943 34.7325H79.3022V2.74353H98.2943V9.67958H87.945V14.712H97.5285V21.6481H87.945V27.687H98.2943V34.7325Z" fill="white"/>
</svg>
