<svg id="relligare_logo" xmlns="http://www.w3.org/2000/svg" width="199.5" height="31.385" viewBox="0 0 199.5 31.385">
  <g id="Group_306" data-name="Group 306" transform="translate(0)">
    <path id="Path_205" data-name="Path 205" d="M46.535,41.585l.259.129.287.114.3.094.317.066.335.056.361.05.348.025.371.019.384.017.4-.017.39,0,.414-.008.832-.036.857-.049.429-.019L53.248,42l.431-.009.433-.007h.431l.419.007.423.015.421.039.414.049.405.048.4.081.382.1.385.107.367.127.36.153.34.183.405.245.348.254.336.287.308.285.253.3.245.326.206.326.179.339.147.337.12.345.1.345.059.356.043.359.01.341-.02.337-.033.341-.059.324-.093.32-.109.3-.135.294-.153.276-.167.258-.2.237-.229.224-.238.2-.249.172-.287.142-.285.125-.316.09-.336.05-.34.023L58,51.041l-.123-.006h-.249l-.118.006-.117.017-.109.03-.1.016-.1.033-.1.028-.094.048-.083.047-.093.04-.077.053-.07.055-.077.056-.067.052-.059.077-.059.07-.055.076-.055.08-.05.087-.036.084-.034.1-.035.095-.033.087-.023.108-.018.109-.024.118-.005.12v.245l.005.127.014.371-.028.342-.054.343-.093.306-.114.292-.147.283-.18.259-.187.239-.227.23-.233.19-.263.181-.277.156-.293.131-.3.118-.31.074-.326.066-.332.045-.342.011-.347-.011-.35-.034-.35-.077-.346-.088-.35-.109-.33-.157-.331-.183-.336-.2-.313-.24-.308-.279-.29-.293-.279-.328-.254-.373-.243-.4-.184-.337-.152-.362-.13-.37-.1-.387-.1-.39-.068-.389-.055-.414-.046-.414-.038-.424-.007-.416,0-.431v-.43l0-.432.007-.438.02-.425.018-.433.046-.85.041-.84.009-.418,0-.391v-.4l0-.378-.018-.383-.029-.351-.042-.357-.054-.337-.078-.323-.083-.306-.117-.283-.121-.27Zm0,0-.135.27-.106.283-.092.306-.079.33-.05.329-.047.357L46,43.813l-.014.383-.01.378v.4l.01.391,0,.418.038.84.05.85.02.433.021.425.005.438.015.432v.43l-.015.431-.014.416-.033.424-.05.414-.05.414-.074.389-.091.39L45.7,52.9l-.123.37-.162.362-.182.337-.231.4-.253.373-.279.328-.3.293-.3.279-.32.24-.327.2-.332.183-.335.157-.355.109-.341.088-.347.077-.355.034-.341.011-.341-.011-.339-.045-.319-.066-.315-.074-.3-.118-.3-.131-.273-.156-.258-.181-.241-.19-.214-.23-.2-.239-.167-.259-.151-.283-.122-.292-.082-.306-.065-.343-.014-.342.01-.371,0-.127v-.245l0-.12L37.1,52.5l-.024-.109-.023-.108-.028-.087-.037-.095-.042-.1-.038-.084-.045-.087-.05-.08-.055-.076-.064-.07-.051-.077-.076-.052-.07-.056-.073-.055-.079-.053-.088-.04-.086-.047-.1-.048-.1-.028-.093-.033-.1-.016-.116-.03-.109-.017-.121-.006h-.243l-.13.006-.362.009-.346-.023-.34-.05-.315-.09-.288-.125-.278-.142-.259-.172-.24-.2-.22-.224-.189-.237-.179-.258-.152-.276-.138-.294-.115-.3-.088-.32-.059-.324-.029-.341-.018-.337.018-.341.029-.359.059-.356.1-.345.119-.345.152-.337.177-.339.205-.326.242-.326.263-.3.309-.285.33-.287.355-.254.4-.245.346-.183.359-.153.364-.127.382-.107.385-.1.4-.081.4-.048.418-.049L37.677,42l.416-.015.425-.007h.426l.428.007.438.009.437.025.421.019.848.049.837.036.409.008.4,0,.39.017.381-.017.372-.019.359-.025.35-.05.334-.056.321-.066.3-.094.287-.114.272-.129Zm0,0,.259-.126.287-.111.3-.1.317-.063.335-.068.361-.032.348-.034.371-.016.384-.008h.4l.39.008.414.013.832.038.857.041.429.025.431.018.431.016.433.007h.431l.419-.007.423-.021.421-.038.414-.036.405-.063.4-.075.382-.09.385-.118.367-.121.36-.153.34-.188.405-.234.348-.264.336-.276.308-.3.253-.3.245-.327.206-.324.179-.335.147-.341.12-.347.1-.35.059-.349.043-.348.01-.351L61.6,35.5l-.033-.346-.059-.311-.093-.32-.109-.3-.135-.3-.153-.276-.167-.259-.2-.242-.229-.211-.238-.2-.249-.172-.287-.154-.285-.122-.316-.088-.336-.049-.34-.032L58,32.122l-.123.015-.126.011-.123-.011-.118-.015-.117-.009-.109-.03-.1-.027-.1-.023-.1-.03-.094-.043-.083-.041-.093-.05-.077-.04-.07-.061L56.49,31.7l-.067-.052-.059-.075-.059-.072-.055-.073-.055-.077-.05-.1-.036-.086-.034-.093-.035-.094-.033-.093-.023-.107-.018-.115-.024-.111-.005-.118v-.247l.005-.124.014-.362-.028-.361-.054-.322-.093-.326-.114-.3-.147-.274-.18-.252-.187-.24-.227-.218-.233-.192-.263-.193-.277-.152-.293-.133-.3-.113-.31-.084-.326-.062-.332-.038-.342-.018-.347.018-.35.032-.35.068-.346.1-.35.124-.33.143-.331.176-.336.215-.313.238-.308.267-.29.292-.279.342-.254.356-.243.4-.184.344-.152.357-.13.372-.1.394-.1.386-.068.4-.055.405-.046.407-.038.421-.007.43,0,.42v.439l0,.428.007.435.02.432.018.437.046.85.041.84.009.412,0,.4V38.6l0,.38-.018.379-.029.36-.042.357-.054.33-.078.324-.083.3-.117.287-.121.269Zm0,0-.135-.269-.106-.287-.092-.3-.079-.324-.05-.33-.047-.357L46,39.356l-.014-.379-.01-.38V38.2l.01-.4,0-.412.038-.84.05-.85.02-.437.021-.432.005-.435.015-.428v-.439l-.015-.42-.014-.43-.033-.421-.05-.407-.05-.405-.074-.4-.091-.386-.116-.394-.123-.372-.162-.357-.182-.344-.231-.4-.253-.356-.279-.342-.3-.292-.3-.267-.32-.238-.327-.215-.332-.176-.335-.143-.355-.124-.341-.1-.347-.068-.355-.032-.341-.018-.341.018-.339.038-.319.062-.315.084-.3.113-.3.133-.273.152-.258.193-.241.192-.214.218-.2.24-.167.252-.151.274-.122.3-.082.326-.065.322-.014.361.01.362,0,.124v.247l0,.118-.023.111-.024.115-.023.107-.028.093-.037.094-.042.093-.038.086-.045.1-.05.077-.055.073-.064.072-.051.075-.076.052-.07.066-.073.061-.079.04-.088.05-.086.041-.1.043-.1.03-.093.023-.1.027-.116.03-.109.009-.121.015-.12.011-.123-.011-.13-.015-.362-.007-.346.032-.34.049-.315.088-.288.122-.278.154-.259.172-.24.2-.22.211-.189.242-.179.259-.152.276-.138.3-.115.3-.088.32-.059.311-.029.346-.018.339.018.351.029.348.059.349.1.35.119.347.152.341.177.335.205.324.242.327.263.3.309.3.33.276.355.264.4.234.346.188.359.153.364.121.382.118.385.09.4.075.4.063.418.036.424.038.416.021.425.007h.426l.428-.007.438-.016.437-.018.421-.025.848-.041.837-.038.409-.013.4-.008h.39l.381.008.372.016.359.034.35.032.334.068.321.063.3.1.287.111.272.126ZM78.706,28.656h10v3.381H83.025v3.47h5.3v3.76h-5.3v3.846h5.683v3.581h-10V28.656Zm-13.558,0h6.557l.262.011.264.021.258.025.246.032.249.047.226.054.233.073.223.059.22.074.2.1.217.1.189.1.187.115.19.118.174.133.165.136.153.14.152.162.132.17.139.178.111.188.109.206.106.208.088.235.078.22.072.242.058.256.058.267.032.276.036.285.019.3v.206l-.009.216-.01.206L76.512,34l-.02.2-.021.19-.023.183-.033.179-.033.174-.038.179-.047.158-.049.172-.05.153-.057.158-.059.143-.064.14-.064.158-.079.126-.078.132-.079.122-.1.126-.1.12-.108.115-.1.113-.111.1-.126.1-.13.091-.128.1-.142.077-.143.093-.152.074-.156.075.249.072.231.081.21.087.206.1.191.111.169.12.161.128.155.132.062.088.056.067.073.068.054.086.04.084.05.083.044.086.035.084.036.093.034.1.015.087.02.1.02.108.016.1v.1l0,.111.187,4.4.01.233.01.221.018.2.024.174.03.165.049.133.04.122.063.1.064.088.056.059.064.065.064.043.064.047.065.023.068.028h.06v.569H73.275l-.181-.018-.17-.018-.147-.029-.115-.032-.106-.052-.046-.023-.05-.022-.033-.032-.031-.034-.028-.034-.021-.039-.032-.043-.024-.05-.043-.126L72.211,46l-.03-.17-.009-.194-.02-.213V41.194l-.018-.2-.028-.183-.047-.175-.04-.16-.071-.148-.033-.061-.03-.068-.038-.052-.052-.059-.039-.057-.053-.041-.053-.045-.062-.047-.068-.043-.067-.021-.077-.043-.088-.032-.073-.017-.092-.022-.105-.023-.092-.011-.213-.03-.233-.011h-1v7.054H65.148V28.656Zm25.255,0h4.315V43.112h5.116v3.581H90.4V28.656Zm11.221,0h4.337V46.693h-4.337V28.656ZM116.319,45.18l-.024.1-.026.093-.033.1-.045.084-.053.1-.054.082-.073.09-.074.08-.091.1-.083.077-.106.09-.108.082-.118.079-.125.068-.142.084-.138.067-.152.079-.152.065-.152.064-.165.067-.152.048-.151.056-.167.034-.167.039-.156.043-.161.027-.18.024-.171.027-.165.011-.175.016-.17.009H112.1l-.183-.014-.194-.021-.179-.036-.193-.042L111.178,47,111,46.947l-.19-.064-.169-.071-.185-.083-.17-.084-.179-.106-.16-.106-.173-.107-.166-.115-.169-.138-.151-.139-.088-.075-.078-.07-.072-.082-.071-.081-.135-.176-.137-.195-.109-.2-.105-.218-.1-.226-.088-.229-.074-.262-.068-.272-.055-.281-.046-.289-.038-.3L108,42.653l-.01-.321-.006-.356v-8.8l.006-.3.01-.294.025-.28.038-.272.05-.266.06-.261.066-.251.085-.231.083-.228.1-.229.119-.217.124-.208.126-.2.142-.185.152-.181.165-.174.084-.089.087-.074.091-.086.1-.073.094-.079.1-.063.117-.073.1-.068.234-.109.235-.12.257-.1.268-.1.274-.088.3-.061.3-.068.317-.045.332-.031.35-.037.357-.01h.695l.327.01.307.023.3.045.294.045.284.052.269.073.265.074.262.086.244.093.247.108.223.109.211.131.225.138.192.14.2.155.174.163.182.188.163.176.138.2.132.2.133.216.111.224.093.237.1.243.068.262.064.263.059.28.044.279.03.3.013.3.01.323v1.564h-4.4V32.417l-.009-.133-.011-.127-.043-.113-.03-.093-.064-.1-.068-.086-.084-.073-.1-.065-.1-.055-.1-.057-.114-.047-.106-.022-.121-.023-.109-.032-.114-.006-.116-.007h-.138l-.133.028-.132.02-.123.032-.131.042-.127.05-.108.065-.122.061-.111.068-.106.09-.088.082-.082.1-.062.1-.044.118-.032.12-.03.111V42.542l.03.16.011.075.02.088.018.071.026.072.034.067.028.071.046.058.035.066.036.068.052.057.054.05.052.05.111.1.122.076.108.07.127.068.131.043.123.05.132.029.133.021h.317l.126-.025.11-.036.123-.045.115-.045.111-.061.1-.074.1-.07.1-.09.1-.1.074-.106.078-.108.042-.111.059-.129.029-.127.013-.133.014-.149V40.214h-1.476V36.993h5.684v9.7h-2.883l-.187-1.513Zm8.65-16.524h4.938l4.016,18.037h-4.4l-.567-3.581h-3.238l-.565,3.581h-4.31l4.123-18.037Zm10.373,0H141.9l.279.011.262.021.263.025.244.032.249.047.22.054.248.073.207.059.23.074.2.1.208.1.2.1.181.115.179.118.18.133.161.136.156.14.147.162.148.17.12.178.122.188.109.206.1.208.085.235.084.22.077.242.064.256.033.267.05.276.033.285.022.3-.009.206V33.6l-.014.206-.01.194-.023.2-.017.19-.033.183-.027.179-.046.174-.024.179-.042.158-.046.172-.06.153-.054.158-.055.143-.058.14-.074.158-.074.126-.082.132-.079.122-.1.126-.107.12-.109.115-.107.113-.1.1-.124.1-.131.091-.137.1-.128.077-.142.093-.158.074-.147.075.243.072.226.081.215.087.2.1.184.111.181.12.152.128.153.132.076.088.059.067.055.068.054.086.055.084.041.083.047.086.038.084.044.093.015.1.032.087.029.1.013.108v.1l.015.1v.111l.188,4.4v.233l.015.221.018.2.017.174.047.165.042.133.041.122.055.1.068.088.064.059.064.065.062.043.063.047.064.023.06.028h.079v.569h-4.037l-.176-.018-.17-.018L143,46.628l-.132-.032-.111-.052-.041-.023-.043-.022-.036-.032-.03-.034-.029-.034-.043-.039-.013-.043-.033-.05-.032-.126L142.424,46l-.033-.17-.014-.194-.013-.213,0-.24V41.413l-.009-.218-.019-.2-.028-.183-.037-.175-.047-.16-.063-.148-.031-.061-.044-.068-.04-.052-.033-.059-.05-.057-.041-.041-.061-.045-.064-.047-.054-.043-.083-.021-.069-.043-.083-.032-.088-.017-.087-.022-.088-.023-.109-.011-.206-.03-.245-.011h-.987v7.054h-4.352V28.656Zm13.567,0h10v3.381h-5.683v3.47h5.313v3.76h-5.313v3.846h5.683v3.581h-10V28.656Zm-24.34-2.645.146.3.161.247.161.206.17.17.18.125.187.1.175.072.19.04.187.023h.194l.2-.023.194-.047.2-.05.192-.07.2-.07.194-.084.385-.174.374-.172.184-.073.174-.07.176-.057.161-.047.156-.018.156-.011.143.023.136.035.121.075.12.093.114.129.1.165.065-.05.087-.061.079-.054.054-.041-.147-.291-.156-.256-.165-.2-.166-.169-.18-.136-.179-.1-.19-.076-.187-.048-.192-.007h-.189l-.2.023-.2.032-.194.063-.2.072-.193.072-.2.072-.384.183-.37.172-.184.072-.175.065-.175.057-.17.052-.156.022h-.147l-.143-.01-.136-.048-.126-.063-.123-.1-.092-.14-.117-.154-.068.044-.077.064-.081.059-.058.04Zm16.112,10.437h.088l.073,0,.075-.009.073-.016.078-.022.077-.02.067-.032.064-.03.156-.072.127-.077.139-.106.132-.128.065-.073.064-.065.05-.083.054-.066.048-.091.039-.1.044-.1.04-.106.019-.1.035-.111.015-.121.022-.118.018-.126.006-.14.009-.14v-.658l-.033-.184-.038-.194-.044-.165-.041-.15-.053-.163-.059-.128-.055-.14-.05-.111-.064-.11-.064-.1-.064-.1-.078-.074-.069-.072L141.573,32l-.082-.052-.093-.04-.174-.058-.2-.059-.2-.038-.2-.039-.215-.023-.232-.025-.233-.008-.253-.009v4.8ZM128.4,39.842l-1.106-7.995-1.2,7.995ZM70.484,36.449h.082l.074,0,.077-.009.076-.016.064-.022.083-.02.068-.032.078-.03.138-.072.133-.077.134-.106.142-.128.06-.073.058-.065.046-.083.058-.066.049-.091.045-.1.042-.1.029-.106.031-.1.033-.111.018-.121.021-.118.011-.126.018-.14v-.8l-.035-.184-.033-.194-.055-.165L72,33.048l-.047-.163-.063-.128-.047-.14-.06-.111-.059-.11-.068-.1-.069-.1-.06-.074-.083-.072L71.357,32l-.069-.052-.086-.04-.185-.058-.184-.059-.194-.038-.211-.039-.23-.023-.222-.025-.244-.008-.248-.009v4.8ZM131.332,49.3v5.8h-1.083v-.574l-.067.093-.063.076-.07.088-.069.068-.068.059-.074.066-.074.052-.072.041-.083.04-.082.049-.091.025-.081.027-.093.012-.1.028h-.389l-.093-.028-.092-.012-.079-.027-.1-.014-.078-.034-.077-.042-.078-.039-.089-.048-.059-.056-.079-.054-.068-.063-.068-.066-.069-.072-.054-.072-.068-.072-.044-.092-.059-.081-.047-.1-.049-.089-.038-.1L127.359,54l-.032-.1-.033-.1-.033-.108-.023-.106-.012-.12-.015-.115-.009-.124v-.119l-.016-.127.016-.125v-.12l.009-.127.015-.126.012-.1.023-.12.033-.107.033-.089.032-.12.028-.1.038-.087.049-.095.047-.082.059-.1.044-.081.068-.086.054-.07.069-.081.068-.06.068-.071.063-.053.075-.053.079-.04.088-.05.073-.045.073-.027.1-.027.088-.026.086-.007.091-.011.091-.013h.194l.106.014.092.009.088.014.1.029.079.028.087.04.083.038.082.05.074.045.074.051.068.063.069.072.065.061.05.079.06.084V49.3Zm-2.99,3.629v.166l.014.146.02.131.023.13.042.131.037.107.051.1.059.084.055.086.074.07.082.054.092.049.084.043.091.022.109.021.112,0,.111,0,.1-.021.087-.022.1-.043.087-.049.072-.054.07-.07.059-.072.06-.1.047-.1.045-.107.033-.131.018-.13.026-.131.006-.146.01-.166-.01-.143-.006-.133-.026-.141-.018-.126-.045-.108-.033-.1-.055-.093-.065-.1-.059-.077-.079-.076-.072-.041-.093-.047-.083-.038-.1-.023-.1-.02-.114-.01-.11.01-.1.02-.093.023-.082.038-.083.049-.068.053-.076.074-.068.074-.055.088-.055.1-.037.109-.038.107-.026.129-.02.118-.014.133v.143ZM122.309,55.1V50.811h1.127v.511l.064-.061.054-.079.075-.063.064-.061.073-.063.074-.051.082-.036.075-.043.081-.041.093-.036.092-.016.084-.028.08-.014.1-.021.1,0h.1l.161,0,.165.021.152.026.138.043.12.05.124.064.106.067.093.093.077.093.074.122.064.121.05.133.038.14.015.148.02.17.015.19V55.1h-1.15V52.4l-.01-.1-.013-.094-.015-.081-.018-.086-.029-.069-.031-.054-.042-.061-.035-.048-.053-.039-.055-.027-.064-.036-.058-.012-.075-.02-.077-.01-.079,0-.111,0-.077.01-.1.02-.086.026-.075.034-.068.047-.065.032-.069.065-.055.07-.045.068-.034.079-.045.078-.009.079-.035.09V55.1Zm-2.453-4.749V49.3H121v1.052Zm0,4.749V50.811H121V55.1Zm-5.212-5.8h1.118v2.054l.047-.084.064-.079.058-.07.064-.063.075-.064.058-.05.078-.058.088-.037.079-.05.078-.027.088-.038.089-.026.094-.007.091-.011.1-.013h.194l.09.013.094.011.1.007.074.026.094.027.074.027.078.045.079.05.088.04.07.053.077.053.059.071.069.06.065.081.064.07.055.086.059.081.05.1.05.082.038.095.035.087.045.1.034.12.029.089.032.107.009.12.019.1.014.126.007.127.009.12v.252l-.009.119-.007.124-.014.115-.019.12-.009.106-.032.108-.029.1-.034.1-.045.093-.035.1-.038.089-.05.1-.05.081-.059.092-.055.072-.064.072-.065.072-.069.066-.059.063-.077.054-.07.056-.088.048-.079.039-.078.042-.087.034-.086.014-.089.027-.087.012-.1.028H116.8l-.1-.028-.088-.012-.082-.027-.084-.025-.087-.049-.078-.04-.074-.041-.069-.052-.067-.066L116,54.853l-.077-.068-.061-.088-.055-.076-.059-.093V55.1h-1.1V49.3Zm2.988,3.629,0-.143,0-.133-.028-.118-.018-.129-.035-.107-.053-.109-.042-.1L117.389,52l-.064-.074-.068-.074-.089-.053-.072-.049-.088-.038-.093-.023-.1-.02-.1-.01-.116.01-.1.02-.1.023-.088.038-.091.047-.075.041-.067.076-.072.077-.048.1-.047.093-.059.1-.029.108-.024.126-.026.141,0,.133v.308l0,.146.026.131.017.13.036.131.039.107.051.1.059.1.064.072.059.07.088.054.074.049.1.043.091.022.112.021.111,0,.111,0,.1-.021.092-.022.1-.043.086-.049.076-.054.068-.07.064-.086.059-.084.057-.1.038-.107.035-.131.027-.13.019-.131,0-.146,0-.166Zm-7.2,2.209h-.184l-.092.009-.11.013h-.176l-.053.011h-.044l-.156-.011-.142-.013-.134-.02-.128-.027-.1-.032-.087-.052-.084-.046-.068-.057-.06-.065-.05-.086-.03-.1-.04-.1-.021-.133-.029-.145,0-.163V51.619h-.57v-.808h.57V49.644h1.125v1.167h.663v.808h-.663v2.455l.017.054.021.06.033.032.044.022.067.021.092.013h.39v.862Zm-4.264-.576-.054.1-.073.072-.057.072-.063.072-.074.057-.077.059-.084.052-.077.046-.093.04-.092.043-.1.023-.1.028-.1.016-.111.015-.112,0h-.112l-.148,0-.146-.015-.131-.026-.128-.035-.109-.05-.106-.072-.1-.067-.086-.082-.082-.1-.065-.105-.059-.112-.043-.121-.035-.128-.029-.143-.013-.156,0-.143,0-.156.013-.127.029-.128.035-.131.043-.106.059-.1.065-.1.082-.077.086-.084.117-.07.11-.07.138-.05.133-.047.169-.047.181-.045.169-.027.106-.023.108-.017.12-.014.136-.018.176-.02.142-.037.125-.047.106-.045.041-.021.033-.038.028-.036.033-.025.012-.035.02-.035,0-.036.013-.05-.013-.047,0-.077-.006-.043-.018-.047-.023-.052-.038-.034-.028-.036-.051-.033-.026-.018-.05-.034-.062-.016-.068-.021-.064-.007h-.077l-.088-.016h-.172l-.077.016h-.068l-.064.02-.065.023-.076.02-.053.024-.044.041-.044.038-.043.034-.025.043-.024.045-.029.054v.054l-.009.064-.018.055v.061h-1.063v-.077l.006-.158.032-.152.009-.072.019-.072.023-.067.033-.066.031-.059.033-.066.045-.056.031-.045.047-.07.055-.038.037-.065.067-.048.059-.045.063-.044.064-.038.064-.03.143-.072.165-.05.151-.047.175-.023.2-.014.187-.009.218.009.209.014.19.017.176.036.168.039.152.067.131.059.131.068.106.082.1.095.047.045.047.063.018.045.042.056.029.059.027.045.014.077.013.061.029.122.006.147v2.57l.015.111.02.093.024.074.027.065.05.044.038.045.064.038v.19H106.3l-.037-.047-.019-.067-.028-.066-.017-.057-.013-.065v-.154l-.016-.084Zm-.018-1.575-.147.072-.156.058-.166.046-.174.041-.158.038-.123.025-.068.013-.017.015-.154.034-.114.068-.057.016-.037.028-.041.038-.027.024-.029.037-.021.045-.019.038-.024.038-.018.05v.048l-.015.054v.108l.015.059.014.047.015.05.018.048.035.04.029.037.027.042.041.034.045.029.048.017.054.021.042.022.055.005.064.011h.181l.1-.016.1-.022.1-.032.088-.036.082-.045.077-.053.062-.065.064-.068.059-.067.038-.087.037-.079.037-.1.023-.093.009-.107,0-.111v-.416ZM98.623,55.1V49.3h1.136v1.99l.055-.07.068-.066.06-.053.065-.071.072-.05.069-.046.074-.047.088-.021.08-.053.087-.029.07-.021.092-.018.087-.014.1-.021.092,0h.194l.093,0,.092.007.091.02.074.021.093.024.072.02.078.034.082.039.062.036.069.036.069.05.05.047.055.048.059.065.047.05.068.086.053.087.026.088.043.109.013.127.021.138.009.194V55.1h-1.133v-2.43l-.011-.176v-.15l-.021-.131-.012-.118-.034-.1-.03-.086-.043-.054-.033-.045-.042-.05-.059-.027-.064-.025-.062-.023-.086-.02-.073-.01-.1,0-.1,0-.1.01-.083.02-.082.026-.084.034-.068.047-.068.032-.065.065-.047.07-.055.068-.039.079-.029.078-.025.079-.026.09,0,.086V55.1Zm-.975.036h-.175l-.1.009-.1.013H97.1l-.059.011h-.042l-.161-.011-.147-.013-.126-.02-.115-.027-.1-.032-.1-.052-.084-.046-.065-.057-.059-.065-.044-.086-.043-.1-.033-.1-.037-.133,0-.145-.01-.163-.013-.17V51.619h-.566v-.808h.566V49.644h1.132v1.167h.662v.808h-.662V53.99l.009.084.018.054.015.06.042.032.03.022.081.021.088.013h.38v.862ZM87.585,53.709h1.147l.009.074.009.077.022.073.019.057.032.054.042.068.045.043.052.04.068.036.07.036.064.032.079.013.081.02.093.012.106.012h.106l.156-.012.135-.012.064-.02.056-.013.053-.032.047-.025.044-.022.038-.043.029-.031.03-.034.02-.041.024-.047.009-.047V53.89l-.009-.031-.024-.04-.014-.037-.024-.025-.033-.029L90.2,53.7l-.042-.031-.1-.049-.114-.043-.152-.039-.152-.05-.131-.027-.114-.027-.108-.023L89.2,53.4l-.2-.068-.187-.049-.165-.054-.152-.07-.133-.061-.12-.065-.106-.075-.1-.068-.068-.088-.066-.081-.051-.086-.045-.093-.049-.111-.02-.093-.013-.129v-.117l0-.161.023-.154.015-.07.014-.066.033-.062.032-.065.021-.072.038-.061.045-.055.038-.061.046-.063.045-.045.055-.053.052-.05.131-.088.131-.079.142-.072.161-.05.16-.047.19-.023.175-.014.2-.009.207.009.189.014.187.023.18.047.161.05.156.072.064.04.073.039.062.034.063.054.06.05.055.053.05.045.05.063.042.061.047.055.029.061.044.072.024.065.035.079.02.064.017.081.028.161.014.165h-1.1l-.009-.064-.014-.069-.014-.055-.023-.059-.031-.047-.037-.047-.043-.038-.042-.043-.047-.043-.063-.025-.052-.029-.068-.013-.067-.02-.082-.016-.083-.006H89.48l-.157.006-.128.016-.052.02-.064.013-.045.012L89,51.654l-.039.029-.038.021-.017.036-.024.034-.018.032-.014.048-.009.042v.044l.009.036,0,.032.014.03.029.035.026.04.038.02.054.027.038.032.128.055.142.053.161.059.216.04.087.019.082.025.067,0,.068.027.206.049.185.054.174.058.157.059.127.059.121.07.106.07.088.064.073.077.06.084.059.087.041.1.037.1.025.111.017.119v.209l-.009.091-.008.083-.015.082-.019.079-.028.085-.014.068-.037.075-.028.063-.045.066-.038.057-.055.065-.039.063-.058.048-.059.05-.064.054-.055.04-.088.039-.063.043-.079.047-.082.027-.074.032-.091.036-.094.023-.2.034-.206.031-.219.028h-.459l-.192-.028-.2-.031-.185-.034-.086-.032-.079-.027-.073-.045-.079-.025-.068-.042-.064-.038-.079-.054-.063-.045-.055-.052-.055-.053-.062-.056-.05-.05-.04-.065-.045-.061-.029-.063-.026-.072-.038-.07-.024-.08-.018-.068-.014-.079L87.618,54l-.02-.086-.014-.077v-.133Zm-1.992.1h1.138l-.049.159-.063.154-.064.152-.082.134-.1.125-.106.122-.106.1-.129.111-.143.079-.138.09-.146.059-.151.059-.161.034-.18.031-.181.028h-.414l-.1-.028-.1-.012-.106-.027-.1-.014-.1-.034-.083-.042-.1-.039-.093-.04-.068-.065-.1-.054-.068-.063-.084-.066-.068-.072-.075-.072-.059-.072-.054-.084-.064-.088-.045-.1L83,54.195l-.043-.1-.045-.108-.037-.1-.024-.107-.033-.113-.021-.108-.019-.122-.01-.125-.014-.114-.009-.137-.008-.135.008-.131.009-.127.014-.115.01-.129.019-.1.021-.118.02-.11.036-.1.037-.1.045-.091.034-.1.049-.1.061-.093.05-.079.059-.077.067-.084.068-.072.073-.068.074-.068.082-.05.074-.061.087-.043.078-.043.1-.053L84,50.782l.091-.027.106-.026.1-.025.1-.013.105-.014.11-.009h.236l.127.009.112.014.11.013.106.011.1.041.106.024.1.032.1.053.083.034.088.045.084.051.077.063.075.063.072.07.073.075.062.07.068.084.055.089.045.084.043.1.053.093.038.093.028.114.035.1.034.11.015.118.03.12.009.128,0,.129.015.129v.327l-.015.059,0,.051H83.934V53.4l.024.1.017.124.029.092.031.088.038.089.039.07.065.068.06.06.054.044.085.049.059.043.086.022.088.025.1.009.1.009.143-.009.125-.021.059-.023.062-.011.048-.025.053-.032.044-.034.043-.03.042-.047.033-.036.042-.047.035-.05.024-.057.035-.051Zm-1.66-1.3h1.674l-.015-.106-.008-.1-.014-.088-.034-.082-.036-.072-.023-.084-.054-.061-.042-.076-.055-.041-.073-.047-.07-.038-.068-.032-.085-.025-.082-.02-.1-.018h-.181l-.077.018-.1.02-.075.025-.068.032-.064.038-.054.049-.06.039-.05.076-.054.061-.03.084-.034.072-.034.082-.017.088-.024.1v.106Zm-2.258-1.7V55.1H80.559v-.51l-.065.084-.064.067-.073.066-.069.063-.069.05-.064.055-.087.038-.08.052-.081.032-.088.036-.093.023-.077.025-.106.009-.083.018-.1.01h-.1l-.174-.01-.148-.018-.156-.016-.134-.041-.128-.065-.118-.055L78.3,54.94l-.087-.087-.092-.092-.064-.114-.059-.118-.047-.133-.037-.154-.038-.143-.013-.179V50.811H79v2.71l.006.111.021.082.009.1.029.077.023.055L79.12,54l.026.067.047.041.039.034.056.031.072.043.064.011.068.011.077.021h.092l.093-.009.1-.012.078-.011.092-.036.071-.032.073-.04.064-.048.065-.059.059-.059.044-.07.042-.076.029-.082.023-.084.024-.082.009-.1V50.811ZM75.415,55.1V49.3h1.142v5.8Zm-2.408-.54-.057.1-.053.072-.083.072-.054.072-.072.057-.077.059-.079.052-.091.046-.088.04-.092.043-.111.023-.092.028-.093.016-.118.015-.11,0h-.107l-.156,0-.138-.015-.128-.026-.125-.035-.12-.05-.1-.072-.1-.067-.087-.082-.084-.1-.059-.105-.057-.112-.049-.121-.042-.128-.028-.143-.014-.156,0-.143,0-.156.014-.127.028-.128.042-.131.04-.106.065-.1.059-.1.084-.077.087-.084.113-.07.111-.07.138-.05.144-.047.152-.047.177-.045.18-.027.1-.023.114-.017.116-.014.142-.018.17-.02.142-.037.128-.047.1-.045.047-.021.042-.038.029-.036.021-.025.02-.035.013-.035.01-.036.008-.05-.008-.047-.01-.077-.006-.043-.021-.047-.018-.052-.033-.034-.032-.036-.047-.033-.033-.018-.047-.034-.059-.016-.07-.021-.059-.007h-.086l-.088-.016H72.2l-.087.016h-.088l-.062.02-.063.023-.055.02-.052.024-.058.041-.034.038-.04.034-.033.043-.024.045-.017.054-.018.054,0,.064-.008.055v.061H70.487v-.077l.009-.158.032-.152.011-.072.013-.072.023-.067.031-.066.034-.059.038-.066.039-.056.034-.045.05-.07.05-.038.042-.065.064-.048.06-.045.068-.044.059-.038.065-.03.137-.072.165-.05.158-.047.179-.023.18-.014.2-.009.216.009.206.014.194.017.169.036.171.039.151.067.143.059.123.068.112.082.091.095.05.045.042.063.033.045.023.056.042.059.02.045.023.077.013.061.018.122.011.147v2.57l.016.111.019.093.019.074.04.065.033.044.05.045.064.038v.19H73.136l-.035-.047-.029-.067,0-.066-.024-.057-.023-.065,0-.072v-.082l-.009-.084Zm-.016-1.575-.143.072-.159.058-.174.046-.168.041-.166.038-.121.025L72,53.279l-.029.015-.141.034-.106.068-.055.016-.045.028-.037.038-.034.024-.026.037-.033.045-.014.038-.012.038-.02.05,0,.048-.009.054v.108l.009.059.016.047.009.05.025.048.033.04.026.037.034.042.037.034.05.029.035.017.055.021.053.022.059.005.059.011h.175l.1-.016.1-.022.089-.032.093-.036.079-.045.077-.053.068-.065.055-.068.07-.067.039-.087.029-.079.035-.1.024-.093.01-.107.006-.111v-.416ZM67.066,55.1l-1.992-5.8H66.4l1.224,4.344L68.88,49.3h1.3l-1.968,5.8Z" transform="translate(-31.445 -25.359)" fill="#1e7240" fill-rule="evenodd"/>
  </g>
  <path id="Path_206" data-name="Path 206" d="M676.265,46.145h1.215v17.8h-1.215Z" transform="translate(-542.385 -41.829)" fill="#1e7240"/>
  <g id="Group_308" data-name="Group 308" transform="translate(141.845 12.404)">
    <g id="Group_307" data-name="Group 307" transform="translate(0 0)">
      <path id="Path_207" data-name="Path 207" d="M714.626,86.128h4.222c1.706,0,2.859.559,2.859,2.229a1.971,1.971,0,0,1-1.217,1.871,2.191,2.191,0,0,1,1.646,2.277c0,1.821-1.547,2.6-3.163,2.6h-4.348Zm1.969,3.643h2c.689,0,1.206-.324,1.206-1.077,0-.852-.654-1.033-1.359-1.033h-1.848Zm0,3.8h2.117c.77,0,1.451-.255,1.451-1.176s-.575-1.294-1.419-1.294h-2.149Z" transform="translate(-714.626 -85.915)" fill="#1e7240"/>
      <path id="Path_208" data-name="Path 208" d="M757.181,86.128h4.836a2.471,2.471,0,0,1,2.628,2.482,2.21,2.21,0,0,1-1.427,2.244v.03c.971.247,1.245,1.188,1.309,2.1a4.91,4.91,0,0,0,.379,2.123h-1.974a10.465,10.465,0,0,1-.317-2.152c-.132-.948-.5-1.359-1.5-1.359h-1.964v3.511h-1.971Zm1.971,4.066h2.158c.883,0,1.361-.385,1.361-1.286,0-.862-.478-1.246-1.361-1.246h-2.158Z" transform="translate(-748.346 -85.915)" fill="#1e7240"/>
      <path id="Path_209" data-name="Path 209" d="M803.355,85.1c2.781,0,4.416,2.079,4.416,4.743a4.415,4.415,0,1,1-8.816,0C798.954,87.18,800.586,85.1,803.355,85.1Zm0,7.745c1.775,0,2.442-1.508,2.442-3,0-1.577-.667-3.082-2.442-3.082s-2.432,1.505-2.432,3.082C800.923,91.338,801.589,92.846,803.355,92.846Z" transform="translate(-781.446 -85.101)" fill="#1e7240"/>
      <path id="Path_210" data-name="Path 210" d="M847.827,86.128h1.97V89.85l3.507-3.722h2.466l-3.508,3.55,3.842,5.43h-2.478l-2.694-4.041L849.8,92.216v2.892h-1.97Z" transform="translate(-820.172 -85.915)" fill="#1e7240"/>
      <path id="Path_211" data-name="Path 211" d="M891.473,86.128h1.973v8.98h-1.973Z" transform="translate(-854.756 -85.915)" fill="#1e7240"/>
      <path id="Path_212" data-name="Path 212" d="M909.293,86.128h1.961L915,92.151h.021V86.128h1.847v8.98h-1.98l-3.72-6.01h-.033v6.01h-1.844Z" transform="translate(-868.875 -85.915)" fill="#1e7240"/>
      <path id="Path_213" data-name="Path 213" d="M959.078,93.264A3.041,3.041,0,0,1,956.61,94.5a4.328,4.328,0,0,1-4.4-4.658c0-2.665,1.633-4.743,4.4-4.743a3.606,3.606,0,0,1,3.784,3.166h-1.884a1.839,1.839,0,0,0-1.9-1.505c-1.77,0-2.433,1.505-2.433,3.082,0,1.493.663,3,2.433,3a1.949,1.949,0,0,0,2.142-1.938h-1.986V89.439h3.768v4.855h-1.257Z" transform="translate(-902.878 -85.101)" fill="#1e7240"/>
    </g>
  </g>
</svg>
