<svg xmlns="http://www.w3.org/2000/svg" width="242" height="42" viewBox="0 0 242 42" fill="none"><path d="M15.3635 41.9465H0L20.7306 0.546143L28.4538 15.2807L15.3635 41.9465ZM2.45395 40.4188H14.4301L26.7601 15.3036L20.7607 3.8574L2.45395 40.4188Z" fill="#AE8058"></path><path d="M21.9615 4.77044L3.91565 40.6769L5.25674 41.3709L23.3026 5.46447L21.9615 4.77044Z" fill="#AE8058"></path><path d="M23.6677 8.26798L7.19147 41.0512L8.53256 41.7453L25.0088 8.96201L23.6677 8.26798Z" fill="#AE8058"></path><path d="M25.3301 11.666L10.6561 40.8633L11.9972 41.5574L26.6712 12.36L25.3301 11.666Z" fill="#AE8058"></path><path d="M81.5524 41.4041L71.3151 21.0171L81.4809 0.790527L82.8208 1.48181L73.005 21.021L82.896 40.709L81.5524 41.4041Z" fill="#AE8058"></path><path d="M78.3156 41.4042L68.0331 21.0172L78.2441 0.786774L79.584 1.4857L69.723 21.021L79.6555 40.7091L78.3156 41.4042Z" fill="#AE8058"></path><path d="M90.2315 41.8205H75.2745L64.7436 21.0172L75.1541 0.370453H90.2428L79.6705 21.0172L90.2315 41.8205ZM76.1966 40.2928H87.7625L77.9769 21.0172L87.7663 1.89814H76.0799L66.441 21.0172L76.1966 40.2928Z" fill="#AE8058"></path><path d="M84.8795 41.4042L74.6422 21.0401L84.8193 0.790588L86.1629 1.48187L76.3321 21.0401L86.2194 40.7091L84.8795 41.4042Z" fill="#AE8058"></path><path d="M102.618 41.4041L92.3769 21.0171L102.546 0.790527L103.886 1.48181L94.0668 21.021L103.958 40.709L102.618 41.4041Z" fill="#AE8058"></path><path d="M99.3774 41.4042L89.0949 21.0172L99.3059 0.786774L100.646 1.4857L90.7886 21.021L100.717 40.7091L99.3774 41.4042Z" fill="#AE8058"></path><path d="M111.293 41.8205H96.3363L85.8054 21.0172L96.2159 0.370453H111.305L100.732 21.0172L111.293 41.8205ZM97.2584 40.2928H108.824L99.0387 21.0172L108.828 1.89814H97.138L87.4991 21.0172L97.2584 40.2928Z" fill="#AE8058"></path><path d="M105.941 41.4042L95.7078 21.0401L105.885 0.790588L107.225 1.48187L97.3977 21.0401L107.285 40.7091L105.941 41.4042Z" fill="#AE8058"></path><path d="M42.0973 41.9274H26.7338L47.7278 0L55.18 15.2731L42.0973 41.9274ZM29.1877 40.3997H41.1639L53.4976 15.2731L47.709 3.41058L29.1877 40.3997Z" fill="#AE8058"></path><path d="M48.8684 4.40667L30.5712 40.8132L31.9123 41.5073L50.2095 5.1007L48.8684 4.40667Z" fill="#AE8058"></path><path d="M50.4466 8.34218L34.1277 40.8124L35.4688 41.5065L51.7877 9.03621L50.4466 8.34218Z" fill="#AE8058"></path><path d="M52.0043 11.7665L37.3901 40.8448L38.7312 41.5388L53.3453 12.4605L52.0043 11.7665Z" fill="#AE8058"></path><path d="M53.3809 42L46.9374 28.8008L54.3331 13.5583L68.4094 41.9771L53.3809 42ZM48.616 28.797L54.3143 40.4685L65.9705 40.4532L54.3482 16.9879L48.616 28.797Z" fill="#AE8058"></path><path d="M53.3136 18.438L51.9708 19.129L63.1977 41.594L64.5405 40.903L53.3136 18.438Z" fill="#AE8058"></path><path d="M51.7196 21.8259L50.3768 22.5169L59.9048 41.5823L61.2475 40.8914L51.7196 21.8259Z" fill="#AE8058"></path><path d="M50.0343 25.1967L48.6916 25.8877L56.541 41.5944L57.8838 40.9034L50.0343 25.1967Z" fill="#AE8058"></path><path d="M117.285 41.8243L110.842 28.6251L118.237 13.3826L132.314 41.8014L117.285 41.8243ZM112.52 28.6213L118.219 40.2928L129.875 40.2775L118.253 16.8122L112.52 28.6213Z" fill="#AE8058"></path><path d="M117.22 18.26L115.878 18.9509L127.104 41.4159L128.447 40.7249L117.22 18.26Z" fill="#AE8058"></path><path d="M115.627 21.6463L114.284 22.3372L123.812 41.4027L125.155 40.7117L115.627 21.6463Z" fill="#AE8058"></path><path d="M113.941 25.0186L112.598 25.7096L120.448 41.4163L121.79 40.7254L113.941 25.0186Z" fill="#AE8058"></path><path d="M28.2031 14.8074L26.8625 15.5024L33.5654 28.8174L34.9061 28.1224L28.2031 14.8074Z" fill="#AE8058"></path><path d="M21.7104 28.2727L20.3613 28.9508L26.7101 41.956L28.0591 41.2778L21.7104 28.2727Z" fill="#AE8058"></path><path d="M26.5048 18.1132L25.1622 18.8042L31.8626 32.2101L33.2052 31.5192L26.5048 18.1132Z" fill="#AE8058"></path><path d="M24.9168 21.515L23.5741 22.206L30.3238 35.7122L31.6666 35.0212L24.9168 21.515Z" fill="#AE8058"></path><path d="M23.2284 24.8874L21.8857 25.5783L28.6848 39.1834L30.0275 38.4924L23.2284 24.8874Z" fill="#AE8058"></path><path d="M151.49 9.72756L151.475 2.91789L148.144 8.59326H147.538L144.207 2.95609V9.72756H142.943V0.378113H144.023L147.865 6.95099L151.656 0.378113H152.736L152.751 9.72756H151.49Z" fill="black"></path><path d="M161.385 7.3902H156.488L155.476 9.72756H154.121L158.295 0.378113H159.597L163.782 9.72756H162.401L161.385 7.3902ZM160.926 6.32082L158.938 1.74157L156.951 6.32082H160.926Z" fill="black"></path><path d="M171.31 9.72756L169.322 6.85551C169.078 6.87461 168.882 6.88225 168.743 6.88225H166.466V9.72756H165.148V0.378113H168.743C169.936 0.378113 170.877 0.66837 171.558 1.24507C172.243 1.82559 172.586 2.62 172.586 3.63591C172.586 4.35774 172.409 4.97263 172.059 5.48059C171.709 5.98855 171.208 6.35901 170.557 6.58816L172.74 9.72756H171.31ZM170.61 5.20178C171.05 4.83514 171.268 4.31572 171.268 3.63972C171.268 2.96372 171.05 2.44431 170.61 2.08531C170.169 1.7263 169.533 1.54297 168.701 1.54297H166.466V5.75175H168.701C169.537 5.74793 170.173 5.56461 170.61 5.20178Z" fill="black"></path><path d="M187.735 0.378113L184.656 9.72756H183.275L180.76 2.26099L178.246 9.72756H176.839L173.76 0.378113H175.115L177.603 7.97837L180.196 0.378113H181.408L183.948 8.01656L186.489 0.378113H187.735Z" fill="black"></path><path d="M194.92 7.3902H190.023L189.011 9.72756H187.656L191.83 0.378113H193.132L197.317 9.72756H195.936L194.92 7.3902ZM194.46 6.32082L192.473 1.74157L190.486 6.32082H194.46Z" fill="black"></path><path d="M198.683 0.378113H202.567C203.542 0.378113 204.404 0.572885 205.161 0.966265C205.913 1.35964 206.501 1.90962 206.918 2.61617C207.336 3.32273 207.543 4.13622 207.543 5.05284C207.543 5.96945 207.336 6.78295 206.918 7.48951C206.501 8.19606 205.917 8.74603 205.161 9.13941C204.404 9.53279 203.542 9.72756 202.567 9.72756H198.683V0.378113ZM202.488 8.56653C203.234 8.56653 203.889 8.42139 204.457 8.12731C205.025 7.83323 205.458 7.42076 205.767 6.89371C206.075 6.36284 206.226 5.75176 206.226 5.05666C206.226 4.36156 206.071 3.75049 205.767 3.21962C205.458 2.68874 205.021 2.27626 204.457 1.986C203.892 1.69574 203.234 1.54679 202.488 1.54679H200.001V8.57034H202.488V8.56653Z" fill="black"></path><path d="M209.557 0.378113H210.874V9.72756H209.557V0.378113Z" fill="black"></path><path d="M144.572 25.2413C143.831 24.8288 143.251 24.2559 142.83 23.5302C142.408 22.8046 142.197 21.9873 142.197 21.0783C142.197 20.1693 142.408 19.352 142.83 18.6264C143.251 17.9007 143.835 17.3316 144.58 16.9154C145.325 16.5029 146.161 16.2928 147.079 16.2928C147.798 16.2928 148.456 16.415 149.055 16.6595C149.653 16.9039 150.161 17.2667 150.583 17.7479L149.729 18.5882C149.036 17.8511 148.17 17.4806 147.135 17.4806C146.45 17.4806 145.833 17.6372 145.28 17.9465C144.727 18.2597 144.294 18.6875 143.985 19.2336C143.673 19.7798 143.518 20.3947 143.518 21.0707C143.518 21.7467 143.673 22.3577 143.985 22.9077C144.297 23.4539 144.73 23.8854 145.28 24.1948C145.833 24.508 146.45 24.6607 147.135 24.6607C148.163 24.6607 149.025 24.2865 149.729 23.5379L150.583 24.3781C150.161 24.8593 149.65 25.2222 149.051 25.4742C148.449 25.7225 147.79 25.8485 147.071 25.8485C146.145 25.86 145.314 25.6537 144.572 25.2413Z" fill="black"></path><path d="M160.384 16.4036V25.753H159.066V21.5863H153.775V25.753H152.457V16.4036H153.775V20.4252H159.066V16.4036H160.384Z" fill="black"></path><path d="M169.018 23.4157H164.121L163.109 25.753H161.754L165.928 16.4036H167.23L171.415 25.753H170.034L169.018 23.4157ZM168.558 22.3501L166.571 17.7708L164.584 22.3501H168.558Z" fill="black"></path><path d="M180.708 16.4036V25.753H179.628L174.099 18.7829V25.753H172.781V16.4036H173.862L179.39 23.3736V16.4036H180.708Z" fill="black"></path><path d="M183.47 16.4036H187.355C188.329 16.4036 189.191 16.5983 189.948 16.9917C190.7 17.3851 191.288 17.9351 191.705 18.6416C192.123 19.3482 192.33 20.1617 192.33 21.0783C192.33 21.9949 192.123 22.8084 191.705 23.515C191.288 24.2215 190.704 24.7715 189.948 25.1649C189.191 25.5582 188.329 25.753 187.355 25.753H183.47V16.4036ZM187.275 24.592C188.021 24.592 188.676 24.4469 189.244 24.1528C189.808 23.8587 190.245 23.4462 190.554 22.9192C190.862 22.3883 191.013 21.7772 191.013 21.0821C191.013 20.387 190.859 19.7759 190.554 19.2451C190.245 18.7142 189.808 18.3017 189.244 18.0115C188.679 17.7212 188.021 17.5722 187.275 17.5722H184.788V24.5958H187.275V24.592Z" fill="black"></path><path d="M200.08 23.4157H195.183L194.171 25.753H192.816L196.99 16.4036H198.292L202.477 25.753H201.092L200.08 23.4157ZM199.62 22.3501L197.633 17.7708L195.646 22.3501H199.62Z" fill="black"></path><path d="M210.005 25.753L208.017 22.881C207.773 22.9001 207.577 22.9077 207.438 22.9077H205.161V25.753H203.843V16.4036H207.438C208.631 16.4036 209.572 16.6938 210.253 17.2705C210.938 17.851 211.281 18.6454 211.281 19.6614C211.281 20.3832 211.104 20.9981 210.754 21.506C210.404 22.014 209.903 22.3845 209.252 22.6136L211.435 25.753H210.005ZM209.305 21.2272C209.745 20.8606 209.963 20.3412 209.963 19.6652C209.963 18.9892 209.745 18.4698 209.305 18.1108C208.864 17.7518 208.228 17.5684 207.396 17.5684H205.161V21.7772H207.396C208.232 21.7734 208.868 21.5901 209.305 21.2272Z" fill="black"></path><path d="M219.282 23.4157H214.386L213.373 25.753H212.018L216.192 16.4036H217.494L221.68 25.753H220.298L219.282 23.4157ZM218.823 22.3501L216.836 17.7708L214.848 22.3501H218.823Z" fill="black"></path><path d="M230.969 16.4036V25.753H229.888L224.359 18.7829V25.753H223.042V16.4036H224.122L229.651 23.3736V16.4036H230.969Z" fill="black"></path><path d="M239.602 23.4157H234.706L233.693 25.753H232.339L236.512 16.4036H237.815L242 25.753H240.619L239.602 23.4157ZM239.143 22.3501L237.156 17.7708L235.169 22.3501H239.143Z" fill="black"></path><path d="M149.33 37.0541H150.594V40.7015C150.139 41.0834 149.608 41.3775 149.002 41.5837C148.396 41.7899 147.764 41.8892 147.105 41.8892C146.176 41.8892 145.336 41.683 144.591 41.2667C143.846 40.8542 143.259 40.2813 142.833 39.5557C142.408 38.83 142.194 38.0127 142.194 37.1037C142.194 36.1948 142.404 35.3775 142.833 34.648C143.259 33.9185 143.846 33.3495 144.599 32.937C145.348 32.5283 146.194 32.3221 147.132 32.3221C147.869 32.3221 148.539 32.4443 149.138 32.6887C149.74 32.9332 150.248 33.2922 150.669 33.7619L149.853 34.5907C149.115 33.8689 148.227 33.5099 147.18 33.5099C146.477 33.5099 145.848 33.6626 145.291 33.972C144.734 34.2775 144.297 34.7053 143.981 35.2552C143.665 35.8014 143.507 36.4201 143.507 37.1037C143.507 37.7797 143.665 38.3908 143.981 38.9408C144.297 39.487 144.734 39.9185 145.291 40.2279C145.848 40.5411 146.473 40.6938 147.165 40.6938C147.99 40.6938 148.709 40.4952 149.326 40.0942V37.0541H149.33Z" fill="black"></path><path d="M159.266 41.7823L157.279 38.9102C157.034 38.9293 156.838 38.937 156.699 38.937H154.422V41.7823H153.105V32.4328H156.699C157.892 32.4328 158.833 32.7231 159.514 33.2998C160.199 33.8803 160.542 34.6747 160.542 35.6906C160.542 36.4125 160.365 37.0274 160.015 37.5353C159.665 38.0433 159.164 38.4137 158.513 38.6429L160.696 41.7823H159.266ZM158.569 37.2527C159.01 36.886 159.228 36.3666 159.228 35.6906C159.228 35.0146 159.01 34.4952 158.569 34.1362C158.129 33.7772 157.493 33.5939 156.661 33.5939H154.422V37.8027H156.658C157.493 37.8027 158.129 37.6193 158.569 37.2527Z" fill="black"></path><path d="M164.32 41.2667C163.575 40.8542 162.988 40.2813 162.563 39.5519C162.138 38.8224 161.923 38.0089 161.923 37.1076C161.923 36.21 162.134 35.3927 162.563 34.6633C162.988 33.9338 163.575 33.3609 164.32 32.9484C165.066 32.536 165.905 32.3259 166.835 32.3259C167.757 32.3259 168.589 32.5321 169.334 32.9484C170.079 33.3609 170.662 33.9338 171.084 34.6594C171.505 35.3851 171.716 36.2024 171.716 37.1114C171.716 38.0204 171.505 38.8377 171.084 39.5633C170.662 40.289 170.079 40.858 169.334 41.2743C168.589 41.6868 167.753 41.8969 166.835 41.8969C165.905 41.8892 165.066 41.6792 164.32 41.2667ZM168.656 40.2317C169.194 39.9185 169.62 39.4908 169.932 38.9446C170.245 38.3985 170.399 37.7836 170.399 37.1076C170.399 36.4316 170.245 35.8205 169.932 35.2705C169.62 34.7244 169.194 34.2928 168.656 33.9834C168.118 33.6703 167.508 33.5175 166.835 33.5175C166.161 33.5175 165.547 33.6741 164.998 33.9834C164.448 34.2966 164.019 34.7244 163.707 35.2705C163.395 35.8167 163.24 36.4316 163.24 37.1076C163.24 37.7836 163.395 38.3946 163.707 38.9446C164.019 39.4908 164.448 39.9223 164.998 40.2317C165.547 40.5449 166.157 40.6976 166.835 40.6976C167.512 40.6976 168.118 40.5449 168.656 40.2317Z" fill="black"></path><path d="M174.678 40.8198C173.993 40.1095 173.651 39.0821 173.651 37.7492V32.4328H174.968V37.6957C174.968 39.7008 175.834 40.7014 177.561 40.7014C178.404 40.7014 179.048 40.4532 179.496 39.9605C179.944 39.4678 180.166 38.7116 180.166 37.6957V32.4328H181.442V37.7492C181.442 39.0936 181.099 40.1209 180.414 40.8275C179.729 41.534 178.773 41.8892 177.546 41.8892C176.319 41.8892 175.363 41.5302 174.678 40.8198Z" fill="black"></path><path d="M190.55 33.2998C191.235 33.8803 191.577 34.6747 191.577 35.6906C191.577 36.7066 191.235 37.501 190.55 38.0815C189.865 38.662 188.928 38.9484 187.735 38.9484H185.458V41.7785H184.14V32.429H187.735C188.928 32.4328 189.865 32.7231 190.55 33.2998ZM189.601 37.2451C190.042 36.8861 190.26 36.3666 190.26 35.6906C190.26 35.0146 190.042 34.4952 189.601 34.1362C189.161 33.7772 188.525 33.5939 187.693 33.5939H185.458V37.7874H187.693C188.529 37.7874 189.165 37.6079 189.601 37.2451Z" fill="black"></path></svg>