<?xml version="1.0" encoding="utf-8"?>
<!-- Generator: Adobe Illustrator 27.9.0, SVG Export Plug-In . SVG Version: 6.00 Build 0)  -->
<svg version="1.1" id="Layer_1" xmlns="http://www.w3.org/2000/svg" xmlns:xlink="http://www.w3.org/1999/xlink" x="0px" y="0px"
	 viewBox="0 0 263.43 30.62" style="enable-background:new 0 0 263.43 30.62;" xml:space="preserve">
<style type="text/css">
	.st0{fill:#BF2026;}
</style>
<g>
	<path class="st0" d="M14.08,0.22c3.87,0,7.4,1.69,9.96,4.42c2.54,2.72,4.13,6.46,4.13,10.58c0,4.12-1.58,7.87-4.13,10.58
		c-2.56,2.73-6.08,4.42-9.96,4.42H0V0.22H14.08z M14.08,5.23H4.76v19.98h9.32c2.55,0,4.89-1.12,6.57-2.92
		c1.7-1.81,2.75-4.31,2.75-7.07s-1.05-5.26-2.75-7.07C18.97,6.35,16.64,5.23,14.08,5.23"/>
	<polygon class="st0" points="80.01,0.24 80.01,5.09 71.36,5.09 71.36,30.41 65.77,30.41 65.77,5.09 57.12,5.09 57.12,0.24 	"/>
	<polygon class="st0" points="199.51,0.24 199.51,5.09 190.86,5.09 190.86,30.41 185.26,30.41 185.26,5.09 176.61,5.09 176.61,0.24 
			"/>
	<rect x="202.57" y="0.24" class="st0" width="5.6" height="30.17"/>
	<path class="st0" d="M235.57,29.06c-1.11,0.42-2.28,0.75-3.52,0.99c-1.23,0.24-2.53,0.39-3.9,0.45c-0.22,0.01-0.45,0.02-0.68,0.02
		c-0.24,0-0.47,0-0.69,0c-0.75,0-1.58-0.04-2.41-0.12c-0.72-0.07-1.44-0.19-2.07-0.34h0c-1.31-0.32-2.56-0.84-3.71-1.52
		c-1.17-0.69-2.25-1.56-3.19-2.57c-1.31-1.4-2.37-3.07-3.09-4.92c-0.7-1.78-1.08-3.74-1.08-5.77s0.38-3.99,1.08-5.77
		c0.72-1.85,1.78-3.52,3.09-4.92c0.8-0.86,1.7-1.61,2.67-2.25c0.96-0.62,1.99-1.13,3.08-1.51h0c0.8-0.27,1.7-0.47,2.61-0.61
		c1.02-0.15,2.07-0.22,3.03-0.22v0h0.45h0.01c1.54,0.02,3.01,0.15,4.4,0.4c1.39,0.24,2.7,0.6,3.94,1.06l0.13,0.05v0.14v4.99v0.31
		l-0.29-0.12c-1.26-0.55-2.58-0.96-3.96-1.23c-1.37-0.27-2.8-0.41-4.27-0.41l-0.3,0l-0.37,0.01c-1.16,0.03-2.59,0.38-3.92,0.92
		c-1.3,0.52-2.5,1.23-3.27,1.98c-0.07,0.07-0.15,0.15-0.23,0.23c-0.06,0.07-0.14,0.15-0.21,0.24c-0.79,0.89-1.42,1.94-1.86,3.1
		c-0.42,1.11-0.65,2.33-0.65,3.6c0,1.32,0.25,2.59,0.69,3.74c0.47,1.2,1.15,2.28,2,3.18c0.23,0.25,0.48,0.49,0.74,0.71
		c0.26,0.22,0.54,0.43,0.82,0.62c0.69,0.47,1.81,1,3.13,1.37c1.05,0.29,2.23,0.48,3.42,0.45h0.01h0.32h0l0.34-0.01
		c1.35-0.04,2.66-0.19,3.92-0.46c1.26-0.27,2.48-0.66,3.65-1.17l0.29-0.12v0.31v4.99v0.14L235.57,29.06z"/>
	<polygon class="st0" points="112.71,30.41 112.71,0.24 118.51,0.24 128.74,23.13 138.77,0.24 144.36,0.24 144.36,30.41 
		139.19,30.41 139.19,9.39 131.01,30.41 126.23,30.41 117.88,9.39 117.88,30.41 	"/>
	<path class="st0" d="M253.58,12.68h-5.15c-2.45,0-3.67-1.12-3.67-3.38c0-2.95,2.54-4.43,7.6-4.43c2.68,0,5.24,0.36,7.69,1.06
		l1.89-4.45c-3.02-0.98-6.21-1.47-9.58-1.47c-8.79,0-13.19,3.1-13.19,9.29c0,5.63,3.09,8.44,9.26,8.44h5.15
		c2.84,0,4.26,1.12,4.26,3.38c0,3.09-2.32,4.63-6.94,4.63c-3.81,0-7.23-0.56-10.26-1.68v5.06c3.03,0.99,6.45,1.48,10.26,1.48
		c8.35,0,12.53-3.16,12.53-9.49C263.43,15.49,260.15,12.68,253.58,12.68"/>
	<polygon class="st0" points="46.42,0.24 40.5,0.24 27.69,30.41 33.43,30.41 43.37,6 48.31,17.33 42.04,17.33 40.12,22.18 
		49.78,22.18 53.58,30.41 59.6,30.41 	"/>
	<polygon class="st0" points="96.31,0.14 90.39,0.14 77.58,30.31 83.32,30.31 93.26,5.9 98.2,17.23 91.93,17.23 90.01,22.09 
		99.67,22.09 103.47,30.31 109.48,30.31 	"/>
	<polygon class="st0" points="166.14,0.14 160.23,0.14 147.41,30.31 153.15,30.31 163.09,5.9 168.03,17.23 161.76,17.23 
		159.85,22.09 169.51,22.09 173.31,30.31 179.32,30.31 	"/>
</g>
</svg>
